<?xml version="1.0" encoding="iso-8859-1"?>
<!-- Generator: Adobe Illustrator 19.0.0, SVG Export Plug-In . SVG Version: 6.00 Build 0)  -->
<svg  height="20pt" version="1.1" id="Capa_1" xmlns="http://www.w3.org/2000/svg" xmlns:xlink="http://www.w3.org/1999/xlink" x="0px" y="0px"
	 viewBox="0 0 512 512" style="enable-background:new 0 0 512 512;" xml:space="preserve">
<path style="fill:#1692FF;" d="M256,0C148.773,0,61.538,87.235,61.538,194.462c0,57.897,36.036,139.279,69.759,196.134
	C152.949,427.099,208.441,512,256,512s103.051-84.901,124.703-121.404c33.723-56.856,69.759-138.237,69.759-196.134
	C450.462,87.235,363.227,0,256,0z"/>
<path style="fill:#007FDD;" d="M380.703,390.596c33.723-56.856,69.759-138.237,69.759-196.134C450.462,87.235,363.227,0,256,0v512
	C303.559,512,359.051,427.099,380.703,390.596z"/>
<path style="fill:#FFCA2B;" d="M315.077,201.846c-6.247,0-11.844-3.957-13.927-9.846c-2.085-5.901-7.665-9.846-13.924-9.846h-3.375
	c-6.258,0-11.838,3.945-13.924,9.846c-2.082,5.889-7.68,9.846-13.927,9.846c-6.247,0-11.844-3.957-13.927-9.846
	c-2.085-5.901-7.665-9.846-13.924-9.846h-3.375c-6.258,0-11.838,3.945-13.924,9.846c-2.082,5.889-7.68,9.846-13.927,9.846
	c-8.157,0-14.769,6.613-14.769,14.769v78.769c0,8.157,6.613,14.769,14.769,14.769h118.154c8.157,0,14.769-6.613,14.769-14.769
	v-78.769C329.846,208.459,323.233,201.846,315.077,201.846z"/>
<path style="fill:#F4AF03;" d="M315.077,310.154c8.157,0,14.769-6.613,14.769-14.769v-78.769c0-8.157-6.613-14.769-14.769-14.769
	c-6.247,0-11.844-3.957-13.927-9.846c-2.085-5.901-7.665-9.846-13.924-9.846h-3.375c-6.258,0-11.838,3.945-13.924,9.846
	c-2.082,5.889-7.68,9.846-13.927,9.846v108.308H315.077z"/>
<path style="fill:#E51D13;" d="M358.816,183.019l-19.692-68.923c-1.812-6.341-7.607-10.712-14.201-10.712H187.077
	c-6.594,0-12.389,4.371-14.201,10.712l-19.692,68.923c-0.377,1.32-0.568,2.685-0.568,4.058c0,24.431,19.876,44.308,44.308,44.308
	c11.338,0,21.694-4.281,29.538-11.309c7.844,7.029,18.201,11.309,29.538,11.309c11.338,0,21.694-4.281,29.538-11.309
	c7.844,7.029,18.201,11.309,29.538,11.309c24.431,0,44.308-19.876,44.308-44.308C359.385,185.704,359.194,184.34,358.816,183.019z"
	/>
<path style="fill:#B50400;" d="M339.124,114.096c-1.812-6.341-7.607-10.712-14.201-10.712H256v128
	c11.338,0,21.694-4.281,29.538-11.309c7.844,7.029,18.201,11.309,29.538,11.309c24.431,0,44.308-19.876,44.308-44.308
	c0-1.373-0.191-2.737-0.568-4.058L339.124,114.096z"/>
<g>
</g>
<g>
</g>
<g>
</g>
<g>
</g>
<g>
</g>
<g>
</g>
<g>
</g>
<g>
</g>
<g>
</g>
<g>
</g>
<g>
</g>
<g>
</g>
<g>
</g>
<g>
</g>
<g>
</g>
</svg>
